<svg width="102" height="24" viewBox="0 0 102 24" fill="none" xmlns="http://www.w3.org/2000/svg">
<path d="M10.3052 0.559999C11.6852 0.559999 12.7652 0.979999 13.5452 1.82C14.3252 2.66 14.7152 3.84 14.7152 5.36V17H9.97523V6.17C9.97523 5.37 9.84523 4.82 9.58523 4.52C9.34523 4.2 8.97523 4.04 8.47523 4.04C7.51523 4.04 6.59523 4.73 5.71523 6.11V17H0.975234V1.07H5.11523L5.44523 2.96C6.12523 2.16 6.85523 1.56 7.63523 1.16C8.43523 0.759999 9.32523 0.559999 10.3052 0.559999ZM31.7297 17H27.6197L27.4097 14.99C26.2497 16.67 24.6397 17.51 22.5797 17.51C21.1197 17.51 20.0097 17.07 19.2497 16.19C18.5097 15.31 18.1397 14.08 18.1397 12.5V1.07H22.8797V11.9C22.8797 12.68 22.9997 13.23 23.2397 13.55C23.4997 13.85 23.8897 14 24.4097 14C25.4097 14 26.2697 13.38 26.9897 12.14V1.07H31.7297V17Z" fill="white"/>
<path d="M42.3577 0.559999C44.7977 0.559999 46.7077 1.31 48.0877 2.81C49.4677 4.29 50.1577 6.37 50.1577 9.05C50.1577 10.75 49.8377 12.24 49.1977 13.52C48.5777 14.78 47.6777 15.76 46.4977 16.46C45.3377 17.16 43.9577 17.51 42.3577 17.51C39.9377 17.51 38.0277 16.77 36.6277 15.29C35.2477 13.79 34.5577 11.7 34.5577 9.02C34.5577 7.32 34.8677 5.84 35.4877 4.58C36.1277 3.3 37.0277 2.31 38.1877 1.61C39.3677 0.909999 40.7577 0.559999 42.3577 0.559999ZM42.3577 4.04C41.3977 4.04 40.6777 4.45 40.1977 5.27C39.7177 6.07 39.4777 7.32 39.4777 9.02C39.4777 10.76 39.7077 12.03 40.1677 12.83C40.6477 13.63 41.3777 14.03 42.3577 14.03C43.3177 14.03 44.0377 13.63 44.5177 12.83C44.9977 12.01 45.2377 10.75 45.2377 9.05C45.2377 7.31 44.9977 6.04 44.5177 5.24C44.0577 4.44 43.3377 4.04 42.3577 4.04ZM61.9772 0.559999C63.9772 0.559999 65.4672 1.3 66.4472 2.78C67.4272 4.26 67.9172 6.33 67.9172 8.99C67.9172 10.63 67.6572 12.1 67.1372 13.4C66.6372 14.68 65.9072 15.69 64.9472 16.43C63.9872 17.15 62.8672 17.51 61.5872 17.51C59.9872 17.51 58.6972 16.96 57.7172 15.86V23.15L52.9772 23.66V1.07H57.1472L57.3872 2.84C58.0072 2.06 58.7172 1.49 59.5172 1.13C60.3172 0.749999 61.1372 0.559999 61.9772 0.559999ZM60.1472 14.03C62.0472 14.03 62.9972 12.37 62.9972 9.05C62.9972 7.17 62.7872 5.87 62.3672 5.15C61.9472 4.41 61.3172 4.04 60.4772 4.04C59.9372 4.04 59.4272 4.2 58.9472 4.52C58.4872 4.84 58.0772 5.3 57.7172 5.9V12.62C58.3572 13.56 59.1672 14.03 60.1472 14.03ZM84.7676 8.72C84.7676 9.38 84.7376 9.95 84.6776 10.43H74.8076C74.9676 11.77 75.3476 12.71 75.9476 13.25C76.5476 13.79 77.3776 14.06 78.4376 14.06C79.0776 14.06 79.6976 13.95 80.2976 13.73C80.8976 13.49 81.5476 13.13 82.2476 12.65L84.1976 15.29C82.3376 16.77 80.2676 17.51 77.9876 17.51C75.4076 17.51 73.4276 16.75 72.0476 15.23C70.6676 13.71 69.9776 11.67 69.9776 9.11C69.9776 7.49 70.2676 6.04 70.8476 4.76C71.4276 3.46 72.2776 2.44 73.3976 1.7C74.5176 0.939999 75.8576 0.559999 77.4176 0.559999C79.7176 0.559999 81.5176 1.28 82.8176 2.72C84.1176 4.16 84.7676 6.16 84.7676 8.72ZM80.1176 7.37C80.0776 4.93 79.2176 3.71 77.5376 3.71C76.7176 3.71 76.0776 4.01 75.6176 4.61C75.1776 5.21 74.9076 6.2 74.8076 7.58H80.1176V7.37ZM96.7603 0.559999C98.1403 0.559999 99.2203 0.979999 100 1.82C100.78 2.66 101.17 3.84 101.17 5.36V17H96.4303V6.17C96.4303 5.37 96.3003 4.82 96.0403 4.52C95.8003 4.2 95.4303 4.04 94.9303 4.04C93.9703 4.04 93.0503 4.73 92.1703 6.11V17H87.4303V1.07H91.5703L91.9003 2.96C92.5803 2.16 93.3103 1.56 94.0903 1.16C94.8903 0.759999 95.7803 0.559999 96.7603 0.559999Z" fill="#E86D70"/>
</svg>
