<svg width="118" height="24" viewBox="0 0 118 24" fill="none" xmlns="http://www.w3.org/2000/svg">
<path d="M9.51227 0.559999C10.8923 0.559999 11.9723 0.979999 12.7523 1.82C13.5323 2.66 13.9223 3.84 13.9223 5.36V17H9.18227V6.17C9.18227 5.37 9.05227 4.82 8.79227 4.52C8.55227 4.2 8.18227 4.04 7.68227 4.04C6.72227 4.04 5.80227 4.73 4.92227 6.11V17H0.182266V1.07H4.32227L4.65227 2.96C5.33227 2.16 6.06227 1.56 6.84227 1.16C7.64227 0.759999 8.53227 0.559999 9.51227 0.559999ZM30.9367 17H26.8267L26.6167 14.99C25.4567 16.67 23.8467 17.51 21.7867 17.51C20.3267 17.51 19.2167 17.07 18.4567 16.19C17.7167 15.31 17.3467 14.08 17.3467 12.5V1.07H22.0867V11.9C22.0867 12.68 22.2067 13.23 22.4467 13.55C22.7067 13.85 23.0967 14 23.6167 14C24.6167 14 25.4767 13.38 26.1967 12.14V1.07H30.9367V17Z" fill="white"/>
<path d="M41.5647 0.559999C44.0047 0.559999 45.9147 1.31 47.2947 2.81C48.6747 4.29 49.3647 6.37 49.3647 9.05C49.3647 10.75 49.0447 12.24 48.4047 13.52C47.7847 14.78 46.8847 15.76 45.7047 16.46C44.5447 17.16 43.1647 17.51 41.5647 17.51C39.1447 17.51 37.2347 16.77 35.8347 15.29C34.4547 13.79 33.7647 11.7 33.7647 9.02C33.7647 7.32 34.0747 5.84 34.6947 4.58C35.3347 3.3 36.2347 2.31 37.3947 1.61C38.5747 0.909999 39.9647 0.559999 41.5647 0.559999ZM41.5647 4.04C40.6047 4.04 39.8847 4.45 39.4047 5.27C38.9247 6.07 38.6847 7.32 38.6847 9.02C38.6847 10.76 38.9147 12.03 39.3747 12.83C39.8547 13.63 40.5847 14.03 41.5647 14.03C42.5247 14.03 43.2447 13.63 43.7247 12.83C44.2047 12.01 44.4447 10.75 44.4447 9.05C44.4447 7.31 44.2047 6.04 43.7247 5.24C43.2647 4.44 42.5447 4.04 41.5647 4.04ZM61.1842 0.559999C63.1842 0.559999 64.6742 1.3 65.6542 2.78C66.6342 4.26 67.1242 6.33 67.1242 8.99C67.1242 10.63 66.8642 12.1 66.3442 13.4C65.8442 14.68 65.1142 15.69 64.1542 16.43C63.1942 17.15 62.0742 17.51 60.7942 17.51C59.1942 17.51 57.9042 16.96 56.9242 15.86V23.15L52.1842 23.66V1.07H56.3542L56.5942 2.84C57.2142 2.06 57.9242 1.49 58.7242 1.13C59.5242 0.749999 60.3442 0.559999 61.1842 0.559999ZM59.3542 14.03C61.2542 14.03 62.2042 12.37 62.2042 9.05C62.2042 7.17 61.9942 5.87 61.5742 5.15C61.1542 4.41 60.5242 4.04 59.6842 4.04C59.1442 4.04 58.6342 4.2 58.1542 4.52C57.6942 4.84 57.2842 5.3 56.9242 5.9V12.62C57.5642 13.56 58.3742 14.03 59.3542 14.03ZM83.9746 8.72C83.9746 9.38 83.9446 9.95 83.8846 10.43H74.0146C74.1746 11.77 74.5546 12.71 75.1546 13.25C75.7546 13.79 76.5846 14.06 77.6446 14.06C78.2846 14.06 78.9046 13.95 79.5046 13.73C80.1046 13.49 80.7546 13.13 81.4546 12.65L83.4046 15.29C81.5446 16.77 79.4746 17.51 77.1946 17.51C74.6146 17.51 72.6346 16.75 71.2546 15.23C69.8746 13.71 69.1846 11.67 69.1846 9.11C69.1846 7.49 69.4746 6.04 70.0546 4.76C70.6346 3.46 71.4846 2.44 72.6046 1.7C73.7246 0.939999 75.0646 0.559999 76.6246 0.559999C78.9246 0.559999 80.7246 1.28 82.0246 2.72C83.3246 4.16 83.9746 6.16 83.9746 8.72ZM79.3246 7.37C79.2846 4.93 78.4246 3.71 76.7446 3.71C75.9246 3.71 75.2846 4.01 74.8246 4.61C74.3846 5.21 74.1146 6.2 74.0146 7.58H79.3246V7.37ZM95.9673 0.559999C97.3473 0.559999 98.4273 0.979999 99.2073 1.82C99.9873 2.66 100.377 3.84 100.377 5.36V17H95.6373V6.17C95.6373 5.37 95.5073 4.82 95.2473 4.52C95.0073 4.2 94.6373 4.04 94.1373 4.04C93.1773 4.04 92.2573 4.73 91.3773 6.11V17H86.6373V1.07H90.7773L91.1073 2.96C91.7873 2.16 92.5173 1.56 93.2973 1.16C94.0973 0.759999 94.9873 0.559999 95.9673 0.559999ZM102.392 22.13V18.41H117.392V22.13H102.392Z" fill="#E86D70"/>
</svg>
