<svg width="90" height="19" viewBox="0 0 90 19" fill="none" xmlns="http://www.w3.org/2000/svg">
<path d="M0.0993166 0.499999H3.24932L10.7243 11.8V0.499999H13.9243V18H11.2993L3.29932 6V18H0.0993166V0.499999ZM24.8251 18.35C22.4251 18.35 20.6168 17.6583 19.4001 16.275C18.1834 14.875 17.5751 12.95 17.5751 10.5V0.499999H20.7751V9.675C20.7751 10.8917 20.8834 11.9083 21.1001 12.725C21.3168 13.525 21.7168 14.15 22.3001 14.6C22.9001 15.05 23.7418 15.275 24.8251 15.275C25.9084 15.275 26.7418 15.05 27.3251 14.6C27.9251 14.15 28.3334 13.525 28.5501 12.725C28.7668 11.9083 28.8751 10.8917 28.8751 9.675V0.499999H32.0751V10.5C32.0751 12.95 31.4668 14.875 30.2501 16.275C29.0334 17.6583 27.2251 18.35 24.8251 18.35ZM50.4097 13.85H44.0347L42.5847 18H39.4847L45.7097 0.499999H48.7347L54.9597 18H51.8597L50.4097 13.85ZM49.4097 11.05L47.2347 4.8L45.0347 11.05H49.4097ZM64.6161 18.35C62.8494 18.35 61.2828 17.975 59.9161 17.225C58.5661 16.475 57.5161 15.4167 56.7661 14.05C56.0161 12.6667 55.6411 11.0667 55.6411 9.25C55.6411 7.45 56.0244 5.86667 56.7911 4.5C57.5744 3.11667 58.6494 2.05 60.0161 1.3C61.3994 0.533332 62.9661 0.149999 64.7161 0.149999C66.3994 0.149999 67.9078 0.491666 69.2411 1.175L68.8911 4.225C68.1744 3.90833 67.4828 3.66667 66.8161 3.5C66.1661 3.31667 65.4578 3.225 64.6911 3.225C62.9078 3.225 61.5328 3.775 60.5661 4.875C59.6161 5.975 59.1411 7.43333 59.1411 9.25C59.1411 11.0667 59.6078 12.525 60.5411 13.625C61.4911 14.725 62.8494 15.275 64.6161 15.275C65.3994 15.275 66.1161 15.1917 66.7661 15.025C67.4328 14.8583 68.1411 14.6083 68.8911 14.275L69.2411 17.325C67.7911 18.0083 66.2494 18.35 64.6161 18.35ZM86.4005 18L84.9005 6.275L80.4255 14.325L75.9255 6.3L74.4255 18H71.1005L73.5255 0.499999H76.1505L80.4255 8.475L84.6755 0.499999H87.3005L89.7255 18H86.4005Z" fill="white" fill-opacity="0.7"/>
</svg>
