<svg width="135" height="25" viewBox="0 0 135 25" fill="none" xmlns="http://www.w3.org/2000/svg">
<g clip-path="url(#clip0)">
<path d="M95.4805 0C96.3946 0 97.0232 0.644028 97.0232 1.50273C97.0232 2.36143 96.4137 3.00547 95.4805 3.00547C94.5852 3.00547 93.9948 2.36143 93.9948 1.50273C93.9948 0.644028 94.6043 0 95.4805 0ZM73.215 6.24512H68.8914V7.94301H71.1199V17.9157H68.8914V19.6136H75.4435V17.9157H73.215V6.24512ZM71.5389 0C70.6437 0 70.0533 0.644028 70.0533 1.50273C70.0533 2.36143 70.6437 3.00547 71.5389 3.00547C72.4531 3.00547 73.0817 2.36143 73.0817 1.50273C73.0817 0.644028 72.4722 0 71.5389 0ZM57.9777 17.8376C60.4348 17.8376 63.1203 16.5691 63.1203 10.7728C63.1203 4.68384 60.3015 3.92272 57.9397 3.92272H55.1017V17.8376H57.9777ZM57.4254 2.12724C61.4442 2.12724 65.425 3.5324 65.425 10.7728C65.425 18.1109 61.2347 19.6136 57.6921 19.6136H52.9495V2.12724H57.4254ZM41.4644 14.7736C41.4644 11.4559 39.1407 10.3044 36.4551 9.5238C33.2172 8.56752 32.1697 7.8064 32.1697 6.30367C32.1697 4.54723 33.7124 3.70804 35.579 3.70804C37.0075 3.70804 38.455 4.19595 39.674 5.28884L40.9692 3.86416C39.5406 2.59563 37.8456 1.85402 35.5218 1.85402C32.2459 1.85402 29.9983 3.72755 29.9983 6.36222C29.9983 9.13349 32.1125 10.402 35.5028 11.4168C38.4169 12.2755 39.2169 13.1148 39.2169 14.8126C39.2169 17.0179 37.3313 18.0523 35.2552 18.0523C33.1791 18.0523 31.7126 17.3107 30.5316 16.1788L29.2364 17.6815C30.6649 19.1062 32.722 19.8868 35.2361 19.8868C39.1978 19.8868 41.4644 17.7986 41.4644 14.7736ZM21.7702 4.03981H26.9128L27.1414 2.12724H14.3039V4.03981H19.637V19.6136H21.7893V4.03981H21.7702ZM5.80921 17.7986C7.46625 17.7986 9.54233 17.3107 9.54233 14.7346C9.54233 12.0609 7.88528 11.4168 5.88539 11.4168H2.15226V17.8182H5.80921V17.7986ZM2.15226 9.56284H5.73302C7.73291 9.56284 8.8757 8.70414 8.8757 6.67447C8.8757 4.66433 7.58053 3.94223 5.5235 3.94223H2.15226V9.56284ZM7.88528 10.363C9.78994 10.6948 11.8279 11.6901 11.8279 14.6565C11.8279 18.4622 8.55191 19.6332 5.44731 19.6332H0V2.12724H5.0283C8.0186 2.12724 11.0661 3.12257 11.0661 6.53786C11.0851 8.80172 9.52329 9.97267 7.88528 10.363ZM79.7671 10.6167C79.7671 12.4512 80.7384 13.7392 82.8716 13.7392C84.7382 13.7392 85.7286 12.5683 85.7286 10.5972C85.7286 8.58704 84.7572 7.5527 82.8335 7.5527C80.7003 7.53317 79.7671 8.80172 79.7671 10.6167ZM84.4144 17.3107C87.0428 17.3107 89.0237 18.8525 89.0237 20.9407C89.0237 23.5559 86.7761 25 82.8145 25V23.2826C85.6715 23.2826 86.9285 22.5214 86.9285 21.0773C86.9285 19.8087 85.6715 19.1647 84.0144 19.1647H81.6907C79.4052 19.1647 78.3957 17.9742 78.3957 16.6276C78.3957 15.7885 78.8908 14.9298 79.8242 14.2858C78.3386 13.5051 77.6529 12.3341 77.6529 10.5972C77.6529 7.88447 79.7861 5.95238 82.8526 5.95238C84.0906 5.95238 85.1382 6.28415 85.9762 6.8306C86.3572 6.49883 86.9667 6.26464 87.8618 6.26464H88.8522V7.96253H87.8618C87.5189 7.96253 87.3094 8.02108 87.1761 8.06011C87.6333 8.78221 87.8809 9.6409 87.8809 10.5972C87.8809 13.2318 86.0715 15.1445 82.9859 15.1445C82.1098 15.1445 81.5955 15.0663 81.0241 14.8712C80.6432 15.1835 80.3575 15.6909 80.3575 16.1592C80.3575 16.8033 80.7575 17.3107 82.0907 17.3107H84.4144ZM97.1565 17.9157V6.24512H95.1947H92.8329V7.9235V7.94301H95.0614V17.9157H92.8329V19.6136H99.385V17.9157H97.1565ZM110.832 17.4863C110.146 17.8766 109.289 18.1303 108.337 18.1303C106.547 18.1303 105.842 17.3497 105.842 15.8665V7.9235H110.927L111.194 6.24512H105.842V2.96643L103.766 3.22014V6.24512H101.404V7.9235H103.766V15.886C103.766 18.2279 105.347 19.8868 108.147 19.8868C109.384 19.8868 110.755 19.5355 111.67 18.9305L110.832 17.4863ZM122.698 12.9586H120.812C117.936 12.9586 116.908 14.032 116.908 15.7495C116.908 17.4278 117.708 18.2865 119.403 18.2865C120.698 18.2865 121.936 17.5839 122.698 16.3739V12.9586ZM124.812 16.6862C124.812 17.7596 125.136 18.1499 125.879 18.384L125.364 19.9063C124.241 19.7502 123.327 19.2233 122.984 17.9938C122.05 19.2428 120.584 19.8673 118.889 19.8673C116.26 19.8673 114.68 18.2475 114.68 15.7495C114.68 13.0172 116.831 11.4559 120.775 11.4559H122.698V10.363C122.698 8.41139 121.537 7.6893 119.593 7.6893C118.717 7.6893 117.537 7.88447 116.204 8.37237L115.631 6.75253C117.251 6.16705 118.622 5.91335 119.917 5.91335C123.155 5.91335 124.793 7.59173 124.793 10.2264V16.6862H124.812ZM131.954 17.9157V0.858704H125.86V2.5566H129.879V19.6136H131.898H131.954H134.259V17.9157H131.954ZM48.7783 11.5535C48.7783 10.6557 48.0354 9.93364 47.1402 9.93364C46.2451 9.93364 45.5023 10.6557 45.5023 11.5535C45.5023 12.4512 46.2451 13.1733 47.1402 13.1733C48.0354 13.1733 48.7783 12.4512 48.7783 11.5535Z" fill="#E5E5E5" fill-opacity="0.7"/>
</g>
<defs>
<clipPath id="clip0">
<rect width="134.259" height="25" fill="white"/>
</clipPath>
</defs>
</svg>
