<svg width="111" height="18" viewBox="0 0 111 18" fill="none" xmlns="http://www.w3.org/2000/svg">
<path d="M3.34286 17.7H0V0.0214233H3.32143L3.34286 17.7ZM6.92143 8.03572L12.75 17.7H9L3.45 8.25L8.87143 0H12.3429L6.92143 8.03572Z" fill="white" fill-opacity="0.7"/>
<path d="M21.9643 13.5858H16.8429L15.8786 17.7001H12.5143L17.4214 0.0214844H21.4714L26.3571 17.7001H22.9286L21.9643 13.5858ZM21.4071 11.0786L19.4143 2.55005L17.4214 11.0786H21.4071Z" fill="white" fill-opacity="0.7"/>
<path d="M37.8643 2.59296L30.4715 15.0001H37.9501L37.6072 17.7215H26.7858V15.193L34.2429 2.67868H27.5358V0.0429688H37.8858L37.8643 2.59296Z" fill="white" fill-opacity="0.7"/>
<path d="M52.6715 8.78559C52.6715 16.007 48.7715 17.7213 44.8715 17.7213H40.3715V0.0427332H44.4857C48.7072 0.0213047 52.6715 1.34987 52.6715 8.78559ZM43.6929 2.50702V15.2356H45.1072C47.4 15.2356 49.2429 14.0784 49.2429 8.78559C49.2429 3.38559 47.2929 2.50702 45.0215 2.50702H43.6929Z" fill="white" fill-opacity="0.7"/>
<path d="M60.5785 10.5858H58.7571V17.7001H55.4357V0.0214844H60.0857C64.5857 0.0214844 66.7714 1.82149 66.7714 5.2072C66.7714 7.43577 65.7428 9.1072 63.6 9.96435L67.7142 17.7001H64.05L60.5785 10.5858ZM60.2785 8.2072C62.3785 8.2072 63.3428 7.28577 63.3428 5.2072C63.3428 3.27863 62.3785 2.44291 60.0642 2.44291H58.7571V8.2072H60.2785Z" fill="white" fill-opacity="0.7"/>
<path d="M78.7286 2.48577H72.9643V7.50006H78.0214V9.92149H72.9857V15.2143H79.1572V17.7001H69.6643V0.0214844H79.0929L78.7286 2.48577Z" fill="white" fill-opacity="0.7"/>
<path d="M89.4215 13.5858H84.3001L83.3358 17.7001H79.9929L84.9001 0.0214844H88.9501L93.8358 17.7001H90.4072L89.4215 13.5858ZM88.8643 11.0786L86.8715 2.55005L84.8786 11.0786H88.8643Z" fill="white" fill-opacity="0.7"/>
<path d="M111 17.7001H107.829L107.443 10.2429C107.314 7.62863 107.207 4.92864 107.271 3.04292L104.486 15.7715H101.379L98.4429 3.02148C98.5286 5.37863 98.4643 7.80006 98.3572 10.3501L97.9929 17.7001H94.8429L96.0643 0.0214844H100.307L102.986 12.4501L105.493 0.0214844H109.757L111 17.7001Z" fill="white" fill-opacity="0.7"/>
</svg>
