<svg width="81" height="30" viewBox="0 0 81 30" fill="none" xmlns="http://www.w3.org/2000/svg">
<path d="M0 20.8799C0 18.4227 0.905332 16.3306 2.7148 14.607C4.52427 12.8834 6.72975 12.021 9.33124 12.021C11.9435 12.021 14.1621 12.8893 15.9835 14.6249C17.781 16.3604 18.6792 18.4919 18.6792 21.0194C18.6792 23.5708 17.775 25.7071 15.9656 27.4319C14.143 29.1448 11.9077 30 9.25967 30C6.63433 30 4.43481 29.1269 2.66113 27.3794C0.88744 25.657 0 23.4885 0 20.8787V20.8799ZM4.13542 20.9491C4.13542 22.65 4.603 23.9955 5.53696 24.9855C6.49596 25.9874 7.76152 26.4884 9.33005 26.4884C10.9129 26.4884 12.1772 25.9934 13.1243 25.0034C14.0714 24.0134 14.5449 22.6905 14.5449 21.0373C14.5449 19.3829 14.0714 18.0613 13.1255 17.0713C12.1653 16.0693 10.901 15.5684 9.33124 15.5684C7.78538 15.5684 6.53294 16.0693 5.57393 17.0713C4.61493 18.0732 4.13542 19.365 4.13542 20.9491ZM27.0049 0V17.9969L32.7041 12.4933H38.1337L30.5284 19.6382L38.6907 29.511H33.4412L27.6514 22.3303L27.0049 22.9589V29.511H22.9589V0H27.0049ZM39.7332 20.8799C39.7332 18.4227 40.6397 16.3306 42.448 14.607C44.2587 12.8834 46.4642 12.021 49.0644 12.021C51.6767 12.021 53.8953 12.8893 55.7167 14.6249C57.5154 16.3604 58.4136 18.4919 58.4136 21.0194C58.4136 23.5708 57.5094 25.7071 55.6988 27.4319C53.8774 29.1448 51.6421 30 48.9929 30C46.3687 30 44.168 29.1269 42.3943 27.3794C40.6207 25.6558 39.7344 23.4885 39.7344 20.8787L39.7332 20.8799ZM43.8686 20.9491C43.8686 22.65 44.3362 23.9955 45.2714 24.9855C46.2304 25.9874 47.4947 26.4884 49.0644 26.4884C50.6473 26.4884 51.9117 25.9934 52.8575 25.0034C53.8058 24.0134 54.2782 22.6905 54.2782 21.0373C54.2782 19.3829 53.8058 18.0613 52.8587 17.0713C51.8997 16.0693 50.6354 15.5684 49.0656 15.5684C47.5186 15.5684 46.2662 16.0693 45.3071 17.0713C44.3481 18.0732 43.8686 19.365 43.8686 20.9491ZM61.8655 20.8799C61.8655 18.4227 62.7709 16.3306 64.5803 14.607C66.391 12.8834 68.5965 12.021 71.1968 12.021C73.809 12.021 76.0276 12.8893 77.849 14.6249C79.6477 16.3604 80.5459 18.4919 80.5459 21.0194C80.5459 23.5708 79.6418 25.7071 77.8311 27.4319C76.0097 29.1448 73.7744 30 71.1252 30C68.5011 30 66.3003 29.1269 64.5267 27.3794C62.753 25.6558 61.8667 23.4885 61.8667 20.8787L61.8655 20.8799ZM66.001 20.9491C66.001 22.65 66.4685 23.9955 67.4037 24.9855C68.3627 25.9874 69.6271 26.4884 71.1968 26.4884C72.7796 26.4884 74.044 25.9934 74.9899 25.0034C75.9369 24.0134 76.4105 22.6905 76.4105 21.0373C76.4105 19.3829 75.9369 18.0613 74.9911 17.0713C74.032 16.0693 72.7677 15.5684 71.198 15.5684C69.6509 15.5684 68.3985 16.0693 67.4395 17.0713C66.4805 18.0732 66.001 19.365 66.001 20.9491Z" fill="white" fill-opacity="0.7"/>
<path d="M64.5517 19.9685H55.96V23.5469H64.5517V19.9685Z" fill="white" fill-opacity="0.7"/>
</svg>
